<?xml version="1.0" encoding="UTF-8" standalone="no"?>
<!DOCTYPE svg PUBLIC "-//W3C//DTD SVG 1.1//EN" "http://www.w3.org/Graphics/SVG/1.1/DTD/svg11.dtd">
<svg xmlns="http://www.w3.org/2000/svg" xmlns:xlink="http://www.w3.org/1999/xlink" viewBox="0 0 705.882352941176 800">
  <title>Export to SVG</title>
  <desc>Generated by CADtoSVG Version 1.0: 17-06-2026 23:18:56</desc>
<polyline points="219.29,80 486.59,80 487.57,80.06 488.54,80.26 489.47,80.57 490.35,81.01 491.17,81.56 491.91,82.21 492.56,82.95 493.11,83.76 493.54,84.65 493.86,85.58 494.05,86.55 494.12,87.53 494.12,125.18 494.05,126.16 493.86,127.13 493.54,128.06 493.11,128.94 492.56,129.76 491.91,130.5 491.17,131.15 490.35,131.7 489.47,132.13 488.54,132.45 487.57,132.64 486.59,132.71 219.29,132.71 218.31,132.64 217.34,132.45 216.41,132.13 215.53,131.7 214.71,131.15 213.97,130.5 213.32,129.76 212.77,128.94 212.34,128.06 212.02,127.13 211.83,126.16 211.76,125.18 211.76,87.53 211.83,86.55 212.02,85.58 212.34,84.65 212.77,83.76 213.32,82.95 213.97,82.21 214.71,81.56 215.53,81.01 216.41,80.57 217.34,80.26 218.31,80.06 219.29,80 219.29,80 " style="stroke:none; fill:#EEEEEE;"/>
<polyline points="219.29,80 486.59,80 487.57,80.06 488.54,80.26 489.47,80.57 490.35,81.01 491.17,81.56 491.91,82.21 492.56,82.95 493.11,83.76 493.54,84.65 493.86,85.58 494.05,86.55 494.12,87.53 494.12,125.18 494.05,126.16 493.86,127.13 493.54,128.06 493.11,128.94 492.56,129.76 491.91,130.5 491.17,131.15 490.35,131.7 489.47,132.13 488.54,132.45 487.57,132.64 486.59,132.71 219.29,132.71 218.31,132.64 217.34,132.45 216.41,132.13 215.53,131.7 214.71,131.15 213.97,130.5 213.32,129.76 212.77,128.94 212.34,128.06 212.02,127.13 211.83,126.16 211.76,125.18 211.76,87.53 211.83,86.55 212.02,85.58 212.34,84.65 212.77,83.76 213.32,82.95 213.97,82.21 214.71,81.56 215.53,81.01 216.41,80.57 217.34,80.26 218.31,80.06 219.29,80 219.29,80 " style="stroke:#999999; fill:none;"/>
<text  x="299.86" y="100.71" style="fill:#000000; font-family:Arial; font-size:13.42">교란 U (관측 안 됨)</text>
<text  x="290.41" y="117.65" style="fill:#000000; font-family:Arial; font-size:11.3">전후 사회불안·반이민 정서</text>
<polyline points="78.12,202.35 213.65,202.35 214.63,202.42 215.6,202.61 216.53,202.93 217.41,203.36 218.23,203.91 218.97,204.56 219.62,205.3 220.17,206.12 220.6,207 220.92,207.93 221.11,208.9 221.18,209.88 221.18,247.53 221.11,248.51 220.92,249.48 220.6,250.41 220.17,251.29 219.62,252.11 218.97,252.85 218.23,253.5 217.41,254.05 216.53,254.49 215.6,254.8 214.63,254.99 213.65,255.06 78.12,255.06 77.13,254.99 76.17,254.8 75.24,254.49 74.35,254.05 73.53,253.5 72.79,252.85 72.14,252.11 71.6,251.29 71.16,250.41 70.84,249.48 70.65,248.51 70.59,247.53 70.59,209.88 70.65,208.9 70.84,207.93 71.16,207 71.6,206.12 72.14,205.3 72.79,204.56 73.53,203.91 74.35,203.36 75.24,202.93 76.17,202.61 77.13,202.42 78.12,202.35 78.12,202.35 " style="stroke:none; fill:#D5E8F0;"/>
<polyline points="78.12,202.35 213.65,202.35 214.63,202.42 215.6,202.61 216.53,202.93 217.41,203.36 218.23,203.91 218.97,204.56 219.62,205.3 220.17,206.12 220.6,207 220.92,207.93 221.11,208.9 221.18,209.88 221.18,247.53 221.11,248.51 220.92,249.48 220.6,250.41 220.17,251.29 219.62,252.11 218.97,252.85 218.23,253.5 217.41,254.05 216.53,254.49 215.6,254.8 214.63,254.99 213.65,255.06 78.12,255.06 77.13,254.99 76.17,254.8 75.24,254.49 74.35,254.05 73.53,253.5 72.79,252.85 72.14,252.11 71.6,251.29 71.16,250.41 70.84,249.48 70.65,248.51 70.59,247.53 70.59,209.88 70.65,208.9 70.84,207.93 71.16,207 71.6,206.12 72.14,205.3 72.79,204.56 73.53,203.91 74.35,203.36 75.24,202.93 76.17,202.61 77.13,202.42 78.12,202.35 78.12,202.35 " style="stroke:#335577; fill:none;"/>
<text  x="127.84" y="223.06" style="fill:#000000; font-family:Arial; font-size:13.42">처치 T</text>
<text  x="91.36" y="240" style="fill:#000000; font-family:Arial; font-size:10.59">금주법 시행(1920-01-17)</text>
<polyline points="285.18,202.35 420.7,202.35 421.69,202.42 422.65,202.61 423.59,202.93 424.47,203.36 425.29,203.91 426.03,204.56 426.68,205.3 427.23,206.12 427.66,207 427.98,207.93 428.17,208.9 428.23,209.88 428.23,247.53 428.17,248.51 427.98,249.48 427.66,250.41 427.23,251.29 426.68,252.11 426.03,252.85 425.29,253.5 424.47,254.05 423.59,254.49 422.65,254.8 421.69,254.99 420.7,255.06 285.18,255.06 284.19,254.99 283.23,254.8 282.29,254.49 281.41,254.05 280.59,253.5 279.85,252.85 279.2,252.11 278.65,251.29 278.22,250.41 277.9,249.48 277.71,248.51 277.65,247.53 277.65,209.88 277.71,208.9 277.9,207.93 278.22,207 278.65,206.12 279.2,205.3 279.85,204.56 280.59,203.91 281.41,203.36 282.29,202.93 283.23,202.61 284.19,202.42 285.18,202.35 285.18,202.35 " style="stroke:none; fill:#CDEEE0;"/>
<polyline points="285.18,202.35 420.7,202.35 421.69,202.42 422.65,202.61 423.59,202.93 424.47,203.36 425.29,203.91 426.03,204.56 426.68,205.3 427.23,206.12 427.66,207 427.98,207.93 428.17,208.9 428.23,209.88 428.23,247.53 428.17,248.51 427.98,249.48 427.66,250.41 427.23,251.29 426.68,252.11 426.03,252.85 425.29,253.5 424.47,254.05 423.59,254.49 422.65,254.8 421.69,254.99 420.7,255.06 285.18,255.06 284.19,254.99 283.23,254.8 282.29,254.49 281.41,254.05 280.59,253.5 279.85,252.85 279.2,252.11 278.65,251.29 278.22,250.41 277.9,249.48 277.71,248.51 277.65,247.53 277.65,209.88 277.71,208.9 277.9,207.93 278.22,207 278.65,206.12 279.2,205.3 279.85,204.56 280.59,203.91 281.41,203.36 282.29,202.93 283.23,202.61 284.19,202.42 285.18,202.35 285.18,202.35 " style="stroke:#117755; fill:none;"/>
<text  x="333.51" y="223.06" style="fill:#000000; font-family:Arial; font-size:13.42">매개 M</text>
<text  x="308.84" y="240" style="fill:#000000; font-family:Arial; font-size:10.59">단속(raid)·체포 강화</text>
<polyline points="492.23,202.35 627.76,202.35 628.75,202.42 629.71,202.61 630.64,202.93 631.53,203.36 632.35,203.91 633.09,204.56 633.74,205.3 634.28,206.12 634.72,207 635.04,207.93 635.23,208.9 635.29,209.88 635.29,247.53 635.23,248.51 635.04,249.48 634.72,250.41 634.28,251.29 633.74,252.11 633.09,252.85 632.35,253.5 631.53,254.05 630.64,254.49 629.71,254.8 628.75,254.99 627.76,255.06 492.23,255.06 491.25,254.99 490.28,254.8 489.35,254.49 488.47,254.05 487.65,253.5 486.91,252.85 486.26,252.11 485.71,251.29 485.28,250.41 484.96,249.48 484.77,248.51 484.7,247.53 484.7,209.88 484.77,208.9 484.96,207.93 485.28,207 485.71,206.12 486.26,205.3 486.91,204.56 487.65,203.91 488.47,203.36 489.35,202.93 490.28,202.61 491.25,202.42 492.23,202.35 492.23,202.35 " style="stroke:none; fill:#F5DFD5;"/>
<polyline points="492.23,202.35 627.76,202.35 628.75,202.42 629.71,202.61 630.64,202.93 631.53,203.36 632.35,203.91 633.09,204.56 633.74,205.3 634.28,206.12 634.72,207 635.04,207.93 635.23,208.9 635.29,209.88 635.29,247.53 635.23,248.51 635.04,249.48 634.72,250.41 634.28,251.29 633.74,252.11 633.09,252.85 632.35,253.5 631.53,254.05 630.64,254.49 629.71,254.8 628.75,254.99 627.76,255.06 492.23,255.06 491.25,254.99 490.28,254.8 489.35,254.49 488.47,254.05 487.65,253.5 486.91,252.85 486.26,252.11 485.71,251.29 485.28,250.41 484.96,249.48 484.77,248.51 484.7,247.53 484.7,209.88 484.77,208.9 484.96,207.93 485.28,207 485.71,206.12 486.26,205.3 486.91,204.56 487.65,203.91 488.47,203.36 489.35,202.93 490.28,202.61 491.25,202.42 492.23,202.35 492.23,202.35 " style="stroke:#AA5522; fill:none;"/>
<text  x="541.6" y="223.06" style="fill:#000000; font-family:Arial; font-size:13.42">결과 Y</text>
<text  x="497.27" y="240" style="fill:#000000; font-family:Arial; font-size:10.59">crime/corruption 프레임 비중</text>
<path d="M277.65,132.71 L273.28,134.46 M269.79,135.88 L265.44,137.66 M261.96,139.1 L257.62,140.91 M254.15,142.39 L250.98,143.74 L249.83,144.24 M246.38,145.75 L244.8,146.44 L242.08,147.66 M238.64,149.2 L234.37,151.17 M230.96,152.78 L227.45,154.46 L226.72,154.82 M223.35,156.49 L222.06,157.12 L219.15,158.62 M215.81,160.36 L211.86,162.48 L211.67,162.59 M208.39,164.43 L207.06,165.18 L204.32,166.79 M201.09,168.74 L198.04,170.63 L197.11,171.24 M193.97,173.31 L193.82,173.4 L190.1,176 M187.08,178.24 L185.98,179.05 L183.37,181.13 M180.48,183.55 L178.92,184.88 L176.97,186.68 M174.26,189.3 L172.65,190.92 L171.02,192.7 M168.55,195.54 L167.16,197.21 L165.63,199.24 " style="stroke:#888888; fill:none; stroke-width:1.06352941176471;"/>
<path d="M428.23,132.71 L432.6,134.46 M436.09,135.88 L440.44,137.66 M443.92,139.1 L448.27,140.91 M451.73,142.38 L454.92,143.74 L456.06,144.23 M459.51,145.73 L461.12,146.44 L463.81,147.64 M467.25,149.17 L471.53,151.13 M474.94,152.73 L478.6,154.46 L479.19,154.74 M482.57,156.4 L484.07,157.12 L486.78,158.5 M490.14,160.21 L494.31,162.39 M497.61,164.19 L499.41,165.18 L501.72,166.49 M504.98,168.37 L508.78,170.63 L509.02,170.79 M512.21,172.78 L513.21,173.4 L516.16,175.35 M519.27,177.46 L521.57,179.05 L523.11,180.18 M526.13,182.42 L529.29,184.88 L529.84,185.33 M532.74,187.72 L532.92,187.87 L536.28,190.83 M539.03,193.4 L539.7,194.03 L542.37,196.71 M544.94,199.46 L545.88,200.47 " style="stroke:#888888; fill:none; stroke-width:1.06352941176471;"/>
<line x1="221.18" y1="228.71" x2="275.76" y2="228.71" style="stroke:#1D9E75; fill:none; stroke-width:1.32705882352941;"/>
<line x1="428.23" y1="228.71" x2="482.82" y2="228.71" style="stroke:#1D9E75; fill:none; stroke-width:1.32705882352941;"/>
<polyline points="83.76,315.29 622.12,315.29 623.84,315.41 625.53,315.74 627.16,316.3 628.7,317.06 630.14,318.02 631.43,319.15 632.57,320.45 633.53,321.88 634.29,323.43 634.84,325.06 635.18,326.75 635.29,328.47 635.29,480.94 635.18,482.66 634.84,484.35 634.29,485.98 633.53,487.53 632.57,488.96 631.43,490.26 630.14,491.39 628.7,492.35 627.16,493.11 625.53,493.67 623.84,494 622.12,494.12 83.76,494.12 82.04,494 80.35,493.67 78.72,493.11 77.18,492.35 75.74,491.39 74.45,490.26 73.31,488.96 72.35,487.53 71.59,485.98 71.04,484.35 70.7,482.66 70.59,480.94 70.59,328.47 70.7,326.75 71.04,325.06 71.59,323.43 72.35,321.88 73.31,320.45 74.45,319.15 75.74,318.02 77.18,317.06 78.72,316.3 80.35,315.74 82.04,315.41 83.76,315.29 83.76,315.29 " style="stroke:none; fill:#F3F8FB;"/>
<polyline points="83.76,315.29 622.12,315.29 623.84,315.41 625.53,315.74 627.16,316.3 628.7,317.06 630.14,318.02 631.43,319.15 632.57,320.45 633.53,321.88 634.29,323.43 634.84,325.06 635.18,326.75 635.29,328.47 635.29,480.94 635.18,482.66 634.84,484.35 634.29,485.98 633.53,487.53 632.57,488.96 631.43,490.26 630.14,491.39 628.7,492.35 627.16,493.11 625.53,493.67 623.84,494 622.12,494.12 83.76,494.12 82.04,494 80.35,493.67 78.72,493.11 77.18,492.35 75.74,491.39 74.45,490.26 73.31,488.96 72.35,487.53 71.59,485.98 71.04,484.35 70.7,482.66 70.59,480.94 70.59,328.47 70.7,326.75 71.04,325.06 71.59,323.43 72.35,321.88 73.31,320.45 74.45,319.15 75.74,318.02 77.18,317.06 78.72,316.3 80.35,315.74 82.04,315.41 83.76,315.29 83.76,315.29 " style="stroke:#335577; fill:none;"/>
<text  x="89.41" y="339.76" style="fill:#000000; font-family:Arial; font-size:13.42">사전(pre) 추출 사례 — 물질 중심 인과</text>
<polyline points="96.94,357.65 336,357.65 336.98,357.71 337.95,357.9 338.88,358.22 339.76,358.66 340.58,359.2 341.32,359.85 341.97,360.59 342.52,361.41 342.96,362.3 343.27,363.23 343.46,364.19 343.53,365.18 343.53,406.59 343.46,407.57 343.27,408.54 342.96,409.47 342.52,410.35 341.97,411.17 341.32,411.91 340.58,412.56 339.76,413.11 338.88,413.54 337.95,413.86 336.98,414.05 336,414.12 96.94,414.12 95.96,414.05 94.99,413.86 94.06,413.54 93.18,413.11 92.36,412.56 91.62,411.91 90.97,411.17 90.42,410.35 89.98,409.47 89.67,408.54 89.48,407.57 89.41,406.59 89.41,365.18 89.48,364.19 89.67,363.23 89.98,362.3 90.42,361.41 90.97,360.59 91.62,359.85 92.36,359.2 93.18,358.66 94.06,358.22 94.99,357.9 95.96,357.71 96.94,357.65 96.94,357.65 " style="stroke:none; fill:#E6F1FB;"/>
<polyline points="96.94,357.65 336,357.65 336.98,357.71 337.95,357.9 338.88,358.22 339.76,358.66 340.58,359.2 341.32,359.85 341.97,360.59 342.52,361.41 342.96,362.3 343.27,363.23 343.46,364.19 343.53,365.18 343.53,406.59 343.46,407.57 343.27,408.54 342.96,409.47 342.52,410.35 341.97,411.17 341.32,411.91 340.58,412.56 339.76,413.11 338.88,413.54 337.95,413.86 336.98,414.05 336,414.12 96.94,414.12 95.96,414.05 94.99,413.86 94.06,413.54 93.18,413.11 92.36,412.56 91.62,411.91 90.97,411.17 90.42,410.35 89.98,409.47 89.67,408.54 89.48,407.57 89.41,406.59 89.41,365.18 89.48,364.19 89.67,363.23 89.98,362.3 90.42,361.41 90.97,360.59 91.62,359.85 92.36,359.2 93.18,358.66 94.06,358.22 94.99,357.9 95.96,357.71 96.94,357.65 96.94,357.65 " style="stroke:#335577; fill:none;"/>
<text  x="98.82" y="373.65" style="fill:#000000; font-family:Arial; font-size:10.59">변성 알코올 접근 용이</text>
<text  x="98.82" y="388.71" style="fill:#000000; font-family:Arial; font-size:10.59">→ 음용 전용(illicit_market)</text>
<text  x="98.82" y="403.76" style="fill:#555555; font-family:Arial; font-size:9.18">a0472</text>
<polyline points="365.18,357.65 604.23,357.65 605.22,357.71 606.18,357.9 607.11,358.22 608,358.66 608.82,359.2 609.56,359.85 610.21,360.59 610.75,361.41 611.19,362.3 611.51,363.23 611.7,364.19 611.76,365.18 611.76,406.59 611.7,407.57 611.51,408.54 611.19,409.47 610.75,410.35 610.21,411.17 609.56,411.91 608.82,412.56 608,413.11 607.11,413.54 606.18,413.86 605.22,414.05 604.23,414.12 365.18,414.12 364.19,414.05 363.23,413.86 362.29,413.54 361.41,413.11 360.59,412.56 359.85,411.91 359.2,411.17 358.65,410.35 358.22,409.47 357.9,408.54 357.71,407.57 357.65,406.59 357.65,365.18 357.71,364.19 357.9,363.23 358.22,362.3 358.65,361.41 359.2,360.59 359.85,359.85 360.59,359.2 361.41,358.66 362.29,358.22 363.23,357.9 364.19,357.71 365.18,357.65 365.18,357.65 " style="stroke:none; fill:#E6F1FB;"/>
<polyline points="365.18,357.65 604.23,357.65 605.22,357.71 606.18,357.9 607.11,358.22 608,358.66 608.82,359.2 609.56,359.85 610.21,360.59 610.75,361.41 611.19,362.3 611.51,363.23 611.7,364.19 611.76,365.18 611.76,406.59 611.7,407.57 611.51,408.54 611.19,409.47 610.75,410.35 610.21,411.17 609.56,411.91 608.82,412.56 608,413.11 607.11,413.54 606.18,413.86 605.22,414.05 604.23,414.12 365.18,414.12 364.19,414.05 363.23,413.86 362.29,413.54 361.41,413.11 360.59,412.56 359.85,411.91 359.2,411.17 358.65,410.35 358.22,409.47 357.9,408.54 357.71,407.57 357.65,406.59 357.65,365.18 357.71,364.19 357.9,363.23 358.22,362.3 358.65,361.41 359.2,360.59 359.85,359.85 360.59,359.2 361.41,358.66 362.29,358.22 363.23,357.9 364.19,357.71 365.18,357.65 365.18,357.65 " style="stroke:#335577; fill:none;"/>
<text  x="367.06" y="373.65" style="fill:#000000; font-family:Arial; font-size:10.59">목정 알코올 음용</text>
<text  x="367.06" y="388.71" style="fill:#000000; font-family:Arial; font-size:10.59">→ 중독/의료비(crime)</text>
<text  x="367.06" y="403.76" style="fill:#555555; font-family:Arial; font-size:9.18">a0531</text>
<polyline points="96.94,423.53 336,423.53 336.98,423.59 337.95,423.79 338.88,424.1 339.76,424.54 340.58,425.09 341.32,425.73 341.97,426.48 342.52,427.29 342.96,428.18 343.27,429.11 343.46,430.08 343.53,431.06 343.53,472.47 343.46,473.45 343.27,474.42 342.96,475.35 342.52,476.24 341.97,477.05 341.32,477.79 340.58,478.44 339.76,478.99 338.88,479.43 337.95,479.74 336.98,479.94 336,480 96.94,480 95.96,479.94 94.99,479.74 94.06,479.43 93.18,478.99 92.36,478.44 91.62,477.79 90.97,477.05 90.42,476.24 89.98,475.35 89.67,474.42 89.48,473.45 89.41,472.47 89.41,431.06 89.48,430.08 89.67,429.11 89.98,428.18 90.42,427.29 90.97,426.48 91.62,425.73 92.36,425.09 93.18,424.54 94.06,424.1 94.99,423.79 95.96,423.59 96.94,423.53 96.94,423.53 " style="stroke:none; fill:#E6F1FB;"/>
<polyline points="96.94,423.53 336,423.53 336.98,423.59 337.95,423.79 338.88,424.1 339.76,424.54 340.58,425.09 341.32,425.73 341.97,426.48 342.52,427.29 342.96,428.18 343.27,429.11 343.46,430.08 343.53,431.06 343.53,472.47 343.46,473.45 343.27,474.42 342.96,475.35 342.52,476.24 341.97,477.05 341.32,477.79 340.58,478.44 339.76,478.99 338.88,479.43 337.95,479.74 336.98,479.94 336,480 96.94,480 95.96,479.94 94.99,479.74 94.06,479.43 93.18,478.99 92.36,478.44 91.62,477.79 90.97,477.05 90.42,476.24 89.98,475.35 89.67,474.42 89.48,473.45 89.41,472.47 89.41,431.06 89.48,430.08 89.67,429.11 89.98,428.18 90.42,427.29 90.97,426.48 91.62,425.73 92.36,425.09 93.18,424.54 94.06,424.1 94.99,423.79 95.96,423.59 96.94,423.53 96.94,423.53 " style="stroke:#335577; fill:none;"/>
<text  x="98.82" y="439.53" style="fill:#000000; font-family:Arial; font-size:10.59">자가제조 술 레시피 광고</text>
<text  x="98.82" y="454.59" style="fill:#000000; font-family:Arial; font-size:10.59">→ 연방 단속·체포(crime)</text>
<text  x="98.82" y="469.65" style="fill:#555555; font-family:Arial; font-size:9.18">a0267</text>
<polyline points="365.18,423.53 604.23,423.53 605.22,423.59 606.18,423.79 607.11,424.1 608,424.54 608.82,425.09 609.56,425.73 610.21,426.48 610.75,427.29 611.19,428.18 611.51,429.11 611.7,430.08 611.76,431.06 611.76,472.47 611.7,473.45 611.51,474.42 611.19,475.35 610.75,476.24 610.21,477.05 609.56,477.79 608.82,478.44 608,478.99 607.11,479.43 606.18,479.74 605.22,479.94 604.23,480 365.18,480 364.19,479.94 363.23,479.74 362.29,479.43 361.41,478.99 360.59,478.44 359.85,477.79 359.2,477.05 358.65,476.24 358.22,475.35 357.9,474.42 357.71,473.45 357.65,472.47 357.65,431.06 357.71,430.08 357.9,429.11 358.22,428.18 358.65,427.29 359.2,426.48 359.85,425.73 360.59,425.09 361.41,424.54 362.29,424.1 363.23,423.79 364.19,423.59 365.18,423.53 365.18,423.53 " style="stroke:none; fill:#E6F1FB;"/>
<polyline points="365.18,423.53 604.23,423.53 605.22,423.59 606.18,423.79 607.11,424.1 608,424.54 608.82,425.09 609.56,425.73 610.21,426.48 610.75,427.29 611.19,428.18 611.51,429.11 611.7,430.08 611.76,431.06 611.76,472.47 611.7,473.45 611.51,474.42 611.19,475.35 610.75,476.24 610.21,477.05 609.56,477.79 608.82,478.44 608,478.99 607.11,479.43 606.18,479.74 605.22,479.94 604.23,480 365.18,480 364.19,479.94 363.23,479.74 362.29,479.43 361.41,478.99 360.59,478.44 359.85,477.79 359.2,477.05 358.65,476.24 358.22,475.35 357.9,474.42 357.71,473.45 357.65,472.47 357.65,431.06 357.71,430.08 357.9,429.11 358.22,428.18 358.65,427.29 359.2,426.48 359.85,425.73 360.59,425.09 361.41,424.54 362.29,424.1 363.23,423.79 364.19,423.59 365.18,423.53 365.18,423.53 " style="stroke:#335577; fill:none;"/>
<text  x="367.06" y="439.53" style="fill:#000000; font-family:Arial; font-size:10.59">다량 알코올 함유 주장 광고</text>
<text  x="367.06" y="454.59" style="fill:#000000; font-family:Arial; font-size:10.59">→ 당국 수사 개시(illicit_market)</text>
<text  x="367.06" y="469.65" style="fill:#555555; font-family:Arial; font-size:9.18">a0267</text>
<polyline points="83.76,512.94 622.12,512.94 623.84,513.05 625.53,513.39 627.16,513.94 628.7,514.71 630.14,515.66 631.43,516.8 632.57,518.1 633.53,519.53 634.29,521.08 634.84,522.71 635.18,524.4 635.29,526.12 635.29,706.82 635.18,708.54 634.84,710.23 634.29,711.87 633.53,713.41 632.57,714.84 631.43,716.14 630.14,717.28 628.7,718.23 627.16,719 625.53,719.55 623.84,719.89 622.12,720 83.76,720 82.04,719.89 80.35,719.55 78.72,719 77.18,718.23 75.74,717.28 74.45,716.14 73.31,714.84 72.35,713.41 71.59,711.87 71.04,710.23 70.7,708.54 70.59,706.82 70.59,526.12 70.7,524.4 71.04,522.71 71.59,521.08 72.35,519.53 73.31,518.1 74.45,516.8 75.74,515.66 77.18,514.71 78.72,513.94 80.35,513.39 82.04,513.05 83.76,512.94 83.76,512.94 " style="stroke:none; fill:#FBF2EE;"/>
<polyline points="83.76,512.94 622.12,512.94 623.84,513.05 625.53,513.39 627.16,513.94 628.7,514.71 630.14,515.66 631.43,516.8 632.57,518.1 633.53,519.53 634.29,521.08 634.84,522.71 635.18,524.4 635.29,526.12 635.29,706.82 635.18,708.54 634.84,710.23 634.29,711.87 633.53,713.41 632.57,714.84 631.43,716.14 630.14,717.28 628.7,718.23 627.16,719 625.53,719.55 623.84,719.89 622.12,720 83.76,720 82.04,719.89 80.35,719.55 78.72,719 77.18,718.23 75.74,717.28 74.45,716.14 73.31,714.84 72.35,713.41 71.59,711.87 71.04,710.23 70.7,708.54 70.59,706.82 70.59,526.12 70.7,524.4 71.04,522.71 71.59,521.08 72.35,519.53 73.31,518.1 74.45,516.8 75.74,515.66 77.18,514.71 78.72,513.94 80.35,513.39 82.04,513.05 83.76,512.94 83.76,512.94 " style="stroke:#AA5522; fill:none;"/>
<text  x="89.41" y="537.41" style="fill:#000000; font-family:Arial; font-size:13.42">사후(post) 추출 사례 — 제도·정치 중심 인과</text>
<polyline points="96.94,555.29 336,555.29 336.98,555.36 337.95,555.55 338.88,555.87 339.76,556.3 340.58,556.85 341.32,557.5 341.97,558.24 342.52,559.06 342.96,559.94 343.27,560.87 343.46,561.84 343.53,562.82 343.53,604.24 343.46,605.22 343.27,606.18 342.96,607.12 342.52,608 341.97,608.82 341.32,609.56 340.58,610.21 339.76,610.76 338.88,611.19 337.95,611.51 336.98,611.7 336,611.76 96.94,611.76 95.96,611.7 94.99,611.51 94.06,611.19 93.18,610.76 92.36,610.21 91.62,609.56 90.97,608.82 90.42,608 89.98,607.12 89.67,606.18 89.48,605.22 89.41,604.24 89.41,562.82 89.48,561.84 89.67,560.87 89.98,559.94 90.42,559.06 90.97,558.24 91.62,557.5 92.36,556.85 93.18,556.3 94.06,555.87 94.99,555.55 95.96,555.36 96.94,555.29 96.94,555.29 " style="stroke:none; fill:#F5DFD5;"/>
<polyline points="96.94,555.29 336,555.29 336.98,555.36 337.95,555.55 338.88,555.87 339.76,556.3 340.58,556.85 341.32,557.5 341.97,558.24 342.52,559.06 342.96,559.94 343.27,560.87 343.46,561.84 343.53,562.82 343.53,604.24 343.46,605.22 343.27,606.18 342.96,607.12 342.52,608 341.97,608.82 341.32,609.56 340.58,610.21 339.76,610.76 338.88,611.19 337.95,611.51 336.98,611.7 336,611.76 96.94,611.76 95.96,611.7 94.99,611.51 94.06,611.19 93.18,610.76 92.36,610.21 91.62,609.56 90.97,608.82 90.42,608 89.98,607.12 89.67,606.18 89.48,605.22 89.41,604.24 89.41,562.82 89.48,561.84 89.67,560.87 89.98,559.94 90.42,559.06 90.97,558.24 91.62,557.5 92.36,556.85 93.18,556.3 94.06,555.87 94.99,555.55 95.96,555.36 96.94,555.29 96.94,555.29 " style="stroke:#AA5522; fill:none;"/>
<text  x="98.82" y="571.29" style="fill:#000000; font-family:Arial; font-size:10.59">금주국 단속(raid) 실시</text>
<text  x="98.82" y="586.35" style="fill:#000000; font-family:Arial; font-size:10.59">→ 압류·체포(crime)</text>
<text  x="98.82" y="601.41" style="fill:#555555; font-family:Arial; font-size:9.18">a3667</text>
<polyline points="365.18,555.29 604.23,555.29 605.22,555.36 606.18,555.55 607.11,555.87 608,556.3 608.82,556.85 609.56,557.5 610.21,558.24 610.75,559.06 611.19,559.94 611.51,560.87 611.7,561.84 611.76,562.82 611.76,604.24 611.7,605.22 611.51,606.18 611.19,607.12 610.75,608 610.21,608.82 609.56,609.56 608.82,610.21 608,610.76 607.11,611.19 606.18,611.51 605.22,611.7 604.23,611.76 365.18,611.76 364.19,611.7 363.23,611.51 362.29,611.19 361.41,610.76 360.59,610.21 359.85,609.56 359.2,608.82 358.65,608 358.22,607.12 357.9,606.18 357.71,605.22 357.65,604.24 357.65,562.82 357.71,561.84 357.9,560.87 358.22,559.94 358.65,559.06 359.2,558.24 359.85,557.5 360.59,556.85 361.41,556.3 362.29,555.87 363.23,555.55 364.19,555.36 365.18,555.29 365.18,555.29 " style="stroke:none; fill:#F5DFD5;"/>
<polyline points="365.18,555.29 604.23,555.29 605.22,555.36 606.18,555.55 607.11,555.87 608,556.3 608.82,556.85 609.56,557.5 610.21,558.24 610.75,559.06 611.19,559.94 611.51,560.87 611.7,561.84 611.76,562.82 611.76,604.24 611.7,605.22 611.51,606.18 611.19,607.12 610.75,608 610.21,608.82 609.56,609.56 608.82,610.21 608,610.76 607.11,611.19 606.18,611.51 605.22,611.7 604.23,611.76 365.18,611.76 364.19,611.7 363.23,611.51 362.29,611.19 361.41,610.76 360.59,610.21 359.85,609.56 359.2,608.82 358.65,608 358.22,607.12 357.9,606.18 357.71,605.22 357.65,604.24 357.65,562.82 357.71,561.84 357.9,560.87 358.22,559.94 358.65,559.06 359.2,558.24 359.85,557.5 360.59,556.85 361.41,556.3 362.29,555.87 363.23,555.55 364.19,555.36 365.18,555.29 365.18,555.29 " style="stroke:#AA5522; fill:none;"/>
<text  x="367.06" y="571.29" style="fill:#000000; font-family:Arial; font-size:10.59">금주법 정치적 반발</text>
<text  x="367.06" y="586.35" style="fill:#000000; font-family:Arial; font-size:10.59">→ 반금주법 강령 추진(corruption)</text>
<text  x="367.06" y="601.41" style="fill:#555555; font-family:Arial; font-size:9.18">a3435</text>
<polyline points="96.94,621.18 336,621.18 336.98,621.24 337.95,621.43 338.88,621.75 339.76,622.19 340.58,622.73 341.32,623.38 341.97,624.12 342.52,624.94 342.96,625.82 343.27,626.76 343.46,627.72 343.53,628.71 343.53,670.12 343.46,671.1 343.27,672.07 342.96,673 342.52,673.88 341.97,674.7 341.32,675.44 340.58,676.09 339.76,676.64 338.88,677.07 337.95,677.39 336.98,677.58 336,677.65 96.94,677.65 95.96,677.58 94.99,677.39 94.06,677.07 93.18,676.64 92.36,676.09 91.62,675.44 90.97,674.7 90.42,673.88 89.98,673 89.67,672.07 89.48,671.1 89.41,670.12 89.41,628.71 89.48,627.72 89.67,626.76 89.98,625.82 90.42,624.94 90.97,624.12 91.62,623.38 92.36,622.73 93.18,622.19 94.06,621.75 94.99,621.43 95.96,621.24 96.94,621.18 96.94,621.18 " style="stroke:none; fill:#F5DFD5;"/>
<polyline points="96.94,621.18 336,621.18 336.98,621.24 337.95,621.43 338.88,621.75 339.76,622.19 340.58,622.73 341.32,623.38 341.97,624.12 342.52,624.94 342.96,625.82 343.27,626.76 343.46,627.72 343.53,628.71 343.53,670.12 343.46,671.1 343.27,672.07 342.96,673 342.52,673.88 341.97,674.7 341.32,675.44 340.58,676.09 339.76,676.64 338.88,677.07 337.95,677.39 336.98,677.58 336,677.65 96.94,677.65 95.96,677.58 94.99,677.39 94.06,677.07 93.18,676.64 92.36,676.09 91.62,675.44 90.97,674.7 90.42,673.88 89.98,673 89.67,672.07 89.48,671.1 89.41,670.12 89.41,628.71 89.48,627.72 89.67,626.76 89.98,625.82 90.42,624.94 90.97,624.12 91.62,623.38 92.36,622.73 93.18,622.19 94.06,621.75 94.99,621.43 95.96,621.24 96.94,621.18 96.94,621.18 " style="stroke:#AA5522; fill:none;"/>
<text  x="98.82" y="637.18" style="fill:#000000; font-family:Arial; font-size:10.59">자금 밀반출 의혹</text>
<text  x="98.82" y="652.24" style="fill:#000000; font-family:Arial; font-size:10.59">→ 재무장관 사임(corruption)</text>
<text  x="98.82" y="667.29" style="fill:#555555; font-family:Arial; font-size:9.18">a3510</text>
<polyline points="365.18,621.18 604.23,621.18 605.22,621.24 606.18,621.43 607.11,621.75 608,622.19 608.82,622.73 609.56,623.38 610.21,624.12 610.75,624.94 611.19,625.82 611.51,626.76 611.7,627.72 611.76,628.71 611.76,670.12 611.7,671.1 611.51,672.07 611.19,673 610.75,673.88 610.21,674.7 609.56,675.44 608.82,676.09 608,676.64 607.11,677.07 606.18,677.39 605.22,677.58 604.23,677.65 365.18,677.65 364.19,677.58 363.23,677.39 362.29,677.07 361.41,676.64 360.59,676.09 359.85,675.44 359.2,674.7 358.65,673.88 358.22,673 357.9,672.07 357.71,671.1 357.65,670.12 357.65,628.71 357.71,627.72 357.9,626.76 358.22,625.82 358.65,624.94 359.2,624.12 359.85,623.38 360.59,622.73 361.41,622.19 362.29,621.75 363.23,621.43 364.19,621.24 365.18,621.18 365.18,621.18 " style="stroke:none; fill:#F5DFD5;"/>
<polyline points="365.18,621.18 604.23,621.18 605.22,621.24 606.18,621.43 607.11,621.75 608,622.19 608.82,622.73 609.56,623.38 610.21,624.12 610.75,624.94 611.19,625.82 611.51,626.76 611.7,627.72 611.76,628.71 611.76,670.12 611.7,671.1 611.51,672.07 611.19,673 610.75,673.88 610.21,674.7 609.56,675.44 608.82,676.09 608,676.64 607.11,677.07 606.18,677.39 605.22,677.58 604.23,677.65 365.18,677.65 364.19,677.58 363.23,677.39 362.29,677.07 361.41,676.64 360.59,676.09 359.85,675.44 359.2,674.7 358.65,673.88 358.22,673 357.9,672.07 357.71,671.1 357.65,670.12 357.65,628.71 357.71,627.72 357.9,626.76 358.22,625.82 358.65,624.94 359.2,624.12 359.85,623.38 360.59,622.73 361.41,622.19 362.29,621.75 363.23,621.43 364.19,621.24 365.18,621.18 365.18,621.18 " style="stroke:#AA5522; fill:none;"/>
<text  x="367.06" y="637.18" style="fill:#000000; font-family:Arial; font-size:10.59">주류 논쟁 격화</text>
<text  x="367.06" y="652.24" style="fill:#000000; font-family:Arial; font-size:10.59">→ 지역 정치 지형 영향(corruption)</text>
<text  x="367.06" y="667.29" style="fill:#555555; font-family:Arial; font-size:9.18">a3354</text>
</svg>
